{
	"patcher" : 	{
		"fileversion" : 1,
		"appversion" : 		{
			"major" : 7,
			"minor" : 3,
			"revision" : 6,
			"architecture" : "x86",
			"modernui" : 1
		}
,
		"rect" : [ 301.0, 272.0, 787.0, 594.0 ],
		"bglocked" : 0,
		"openinpresentation" : 0,
		"default_fontsize" : 12.0,
		"default_fontface" : 0,
		"default_fontname" : "Arial",
		"gridonopen" : 1,
		"gridsize" : [ 15.0, 15.0 ],
		"gridsnaponopen" : 1,
		"objectsnaponopen" : 1,
		"statusbarvisible" : 2,
		"toolbarvisible" : 1,
		"lefttoolbarpinned" : 0,
		"toptoolbarpinned" : 0,
		"righttoolbarpinned" : 0,
		"bottomtoolbarpinned" : 0,
		"toolbars_unpinned_last_save" : 0,
		"tallnewobj" : 0,
		"boxanimatetime" : 200,
		"enablehscroll" : 1,
		"enablevscroll" : 1,
		"devicewidth" : 0.0,
		"description" : "",
		"digest" : "",
		"tags" : "",
		"style" : "",
		"subpatcher_template" : "",
		"boxes" : [ 			{
				"box" : 				{
					"id" : "obj-27",
					"maxclass" : "comment",
					"numinlets" : 1,
					"numoutlets" : 0,
					"patching_rect" : [ 492.0, 480.0, 150.0, 20.0 ],
					"style" : "",
					"text" : "convert to frequency"
				}

			}
, 			{
				"box" : 				{
					"id" : "obj-25",
					"linecount" : 2,
					"maxclass" : "comment",
					"numinlets" : 1,
					"numoutlets" : 0,
					"patching_rect" : [ 480.0, 324.0, 150.0, 33.0 ],
					"style" : "",
					"text" : "random number between 50 and 110"
				}

			}
, 			{
				"box" : 				{
					"id" : "obj-23",
					"maxclass" : "ezdac~",
					"numinlets" : 2,
					"numoutlets" : 0,
					"patching_rect" : [ 206.0, 592.0, 45.0, 45.0 ],
					"style" : ""
				}

			}
, 			{
				"box" : 				{
					"id" : "obj-22",
					"maxclass" : "newobj",
					"numinlets" : 2,
					"numoutlets" : 1,
					"outlettype" : [ "signal" ],
					"patching_rect" : [ 206.0, 483.0, 29.5, 22.0 ],
					"style" : "",
					"text" : "*~"
				}

			}
, 			{
				"box" : 				{
					"id" : "obj-21",
					"maxclass" : "message",
					"numinlets" : 2,
					"numoutlets" : 1,
					"outlettype" : [ "" ],
					"patching_rect" : [ 261.0, 379.0, 34.0, 22.0 ],
					"style" : "",
					"text" : "0 20"
				}

			}
, 			{
				"box" : 				{
					"id" : "obj-19",
					"maxclass" : "newobj",
					"numinlets" : 2,
					"numoutlets" : 1,
					"outlettype" : [ "bang" ],
					"patching_rect" : [ 261.0, 344.0, 43.0, 22.0 ],
					"style" : "",
					"text" : "del 20"
				}

			}
, 			{
				"box" : 				{
					"id" : "obj-17",
					"maxclass" : "message",
					"numinlets" : 2,
					"numoutlets" : 1,
					"outlettype" : [ "" ],
					"patching_rect" : [ 220.0, 350.0, 29.5, 22.0 ],
					"style" : "",
					"text" : "1 5"
				}

			}
, 			{
				"box" : 				{
					"id" : "obj-14",
					"maxclass" : "newobj",
					"numinlets" : 2,
					"numoutlets" : 2,
					"outlettype" : [ "signal", "bang" ],
					"patching_rect" : [ 233.0, 424.0, 36.0, 22.0 ],
					"style" : "",
					"text" : "line~"
				}

			}
, 			{
				"box" : 				{
					"id" : "obj-13",
					"maxclass" : "newobj",
					"numinlets" : 2,
					"numoutlets" : 1,
					"outlettype" : [ "int" ],
					"patching_rect" : [ 385.0, 334.0, 34.0, 22.0 ],
					"style" : "",
					"text" : "+ 50"
				}

			}
, 			{
				"box" : 				{
					"id" : "obj-12",
					"maxclass" : "newobj",
					"numinlets" : 2,
					"numoutlets" : 1,
					"outlettype" : [ "int" ],
					"patching_rect" : [ 385.0, 307.0, 68.0, 22.0 ],
					"style" : "",
					"text" : "random 60"
				}

			}
, 			{
				"box" : 				{
					"id" : "obj-11",
					"maxclass" : "newobj",
					"numinlets" : 1,
					"numoutlets" : 1,
					"outlettype" : [ "signal" ],
					"patching_rect" : [ 118.0, 350.0, 46.0, 22.0 ],
					"style" : "",
					"text" : "noise~"
				}

			}
, 			{
				"box" : 				{
					"format" : 6,
					"id" : "obj-56",
					"maxclass" : "flonum",
					"numinlets" : 1,
					"numoutlets" : 2,
					"outlettype" : [ "", "bang" ],
					"parameter_enable" : 0,
					"patching_rect" : [ 385.0, 504.0, 50.0, 22.0 ],
					"style" : ""
				}

			}
, 			{
				"box" : 				{
					"id" : "obj-51",
					"maxclass" : "newobj",
					"numinlets" : 1,
					"numoutlets" : 1,
					"outlettype" : [ "" ],
					"patching_rect" : [ 385.0, 475.0, 34.0, 22.0 ],
					"style" : "",
					"text" : "mtof"
				}

			}
, 			{
				"box" : 				{
					"id" : "obj-50",
					"maxclass" : "newobj",
					"numinlets" : 2,
					"numoutlets" : 1,
					"outlettype" : [ "signal" ],
					"patcher" : 					{
						"fileversion" : 1,
						"appversion" : 						{
							"major" : 7,
							"minor" : 3,
							"revision" : 6,
							"architecture" : "x86",
							"modernui" : 1
						}
,
						"rect" : [ 59.0, 104.0, 1001.0, 584.0 ],
						"bglocked" : 0,
						"openinpresentation" : 0,
						"default_fontsize" : 12.0,
						"default_fontface" : 0,
						"default_fontname" : "Arial",
						"gridonopen" : 1,
						"gridsize" : [ 15.0, 15.0 ],
						"gridsnaponopen" : 1,
						"objectsnaponopen" : 1,
						"statusbarvisible" : 2,
						"toolbarvisible" : 1,
						"lefttoolbarpinned" : 0,
						"toptoolbarpinned" : 0,
						"righttoolbarpinned" : 0,
						"bottomtoolbarpinned" : 0,
						"toolbars_unpinned_last_save" : 0,
						"tallnewobj" : 0,
						"boxanimatetime" : 200,
						"enablehscroll" : 1,
						"enablevscroll" : 1,
						"devicewidth" : 0.0,
						"description" : "",
						"digest" : "",
						"tags" : "",
						"style" : "",
						"subpatcher_template" : "",
						"boxes" : [ 							{
								"box" : 								{
									"comment" : "",
									"id" : "obj-7",
									"index" : 1,
									"maxclass" : "outlet",
									"numinlets" : 1,
									"numoutlets" : 0,
									"patching_rect" : [ 67.0, 497.0, 30.0, 30.0 ],
									"style" : ""
								}

							}
, 							{
								"box" : 								{
									"comment" : "",
									"id" : "obj-5",
									"index" : 1,
									"maxclass" : "inlet",
									"numinlets" : 0,
									"numoutlets" : 1,
									"outlettype" : [ "signal" ],
									"patching_rect" : [ 25.0, 72.0, 30.0, 30.0 ],
									"style" : ""
								}

							}
, 							{
								"box" : 								{
									"comment" : "",
									"id" : "obj-4",
									"index" : 2,
									"maxclass" : "inlet",
									"numinlets" : 0,
									"numoutlets" : 1,
									"outlettype" : [ "" ],
									"patching_rect" : [ 478.0, 40.0, 30.0, 30.0 ],
									"style" : ""
								}

							}
, 							{
								"box" : 								{
									"fontname" : "Arial",
									"fontsize" : 13.0,
									"hidden" : 1,
									"id" : "obj-10",
									"maxclass" : "message",
									"numinlets" : 2,
									"numoutlets" : 1,
									"outlettype" : [ "" ],
									"patching_rect" : [ 594.0, 159.5, 48.0, 23.0 ],
									"style" : "",
									"text" : "set $1"
								}

							}
, 							{
								"box" : 								{
									"fontname" : "Arial",
									"fontsize" : 13.0,
									"hidden" : 1,
									"id" : "obj-9",
									"maxclass" : "message",
									"numinlets" : 2,
									"numoutlets" : 1,
									"outlettype" : [ "" ],
									"patching_rect" : [ 514.0, 159.5, 48.0, 23.0 ],
									"style" : "",
									"text" : "set $1"
								}

							}
, 							{
								"box" : 								{
									"fontname" : "Arial",
									"fontsize" : 13.0,
									"hidden" : 1,
									"id" : "obj-8",
									"maxclass" : "message",
									"numinlets" : 2,
									"numoutlets" : 1,
									"outlettype" : [ "" ],
									"patching_rect" : [ 419.0, 159.5, 48.0, 23.0 ],
									"style" : "",
									"text" : "set $1"
								}

							}
, 							{
								"box" : 								{
									"bubble" : 1,
									"bubbleside" : 2,
									"fontname" : "Arial",
									"fontsize" : 13.0,
									"id" : "obj-71",
									"maxclass" : "comment",
									"numinlets" : 1,
									"numoutlets" : 0,
									"patching_rect" : [ 581.5, 115.0, 73.0, 40.0 ],
									"style" : "",
									"text" : "set Q or S"
								}

							}
, 							{
								"box" : 								{
									"fontname" : "Arial",
									"fontsize" : 13.0,
									"format" : 6,
									"id" : "obj-72",
									"maxclass" : "flonum",
									"numinlets" : 1,
									"numoutlets" : 2,
									"outlettype" : [ "", "bang" ],
									"parameter_enable" : 0,
									"patching_rect" : [ 594.0, 195.0, 55.0, 23.0 ],
									"style" : ""
								}

							}
, 							{
								"box" : 								{
									"fontname" : "Arial",
									"fontsize" : 13.0,
									"format" : 6,
									"id" : "obj-74",
									"maxclass" : "flonum",
									"numinlets" : 1,
									"numoutlets" : 2,
									"outlettype" : [ "", "bang" ],
									"parameter_enable" : 0,
									"patching_rect" : [ 514.0, 195.0, 55.0, 23.0 ],
									"style" : ""
								}

							}
, 							{
								"box" : 								{
									"fontname" : "Arial",
									"fontsize" : 13.0,
									"format" : 6,
									"id" : "obj-75",
									"maxclass" : "flonum",
									"numinlets" : 1,
									"numoutlets" : 2,
									"outlettype" : [ "", "bang" ],
									"parameter_enable" : 0,
									"patching_rect" : [ 419.0, 195.0, 57.0, 23.0 ],
									"style" : ""
								}

							}
, 							{
								"box" : 								{
									"fontface" : 0,
									"id" : "obj-81",
									"linmarkers" : [ 0.0, 11025.0, 16537.5 ],
									"logmarkers" : [ 0.0, 100.0, 1000.0, 10000.0 ],
									"maxclass" : "filtergraph~",
									"nfilters" : 1,
									"numinlets" : 8,
									"numoutlets" : 7,
									"outlettype" : [ "list", "float", "float", "float", "float", "list", "int" ],
									"parameter_enable" : 0,
									"patching_rect" : [ 268.0, 243.0, 360.0, 155.0 ],
									"setfilter" : [ 0, 1, 1, 0, 0, 233.081879, 1.747897, 2.5, 0.0, 0.0, 0.0, 0.0, 0.0, 0.0 ],
									"style" : "",
									"varname" : "filtergraph~"
								}

							}
, 							{
								"box" : 								{
									"bubble" : 1,
									"bubbleside" : 2,
									"fontname" : "Arial",
									"fontsize" : 13.0,
									"id" : "obj-82",
									"linecount" : 2,
									"maxclass" : "comment",
									"numinlets" : 1,
									"numoutlets" : 0,
									"patching_rect" : [ 408.375, 90.0, 88.25, 55.0 ],
									"style" : "",
									"text" : "set cutoff or center freq"
								}

							}
, 							{
								"box" : 								{
									"bubble" : 1,
									"bubbleside" : 2,
									"fontname" : "Arial",
									"fontsize" : 13.0,
									"id" : "obj-83",
									"maxclass" : "comment",
									"numinlets" : 1,
									"numoutlets" : 0,
									"patching_rect" : [ 508.5, 115.0, 59.0, 40.0 ],
									"style" : "",
									"text" : "set gain"
								}

							}
, 							{
								"box" : 								{
									"bubble" : 1,
									"bubbleside" : 2,
									"fontname" : "Arial",
									"fontsize" : 13.0,
									"id" : "obj-85",
									"maxclass" : "comment",
									"numinlets" : 1,
									"numoutlets" : 0,
									"patching_rect" : [ 262.25, 130.0, 118.0, 40.0 ],
									"style" : "",
									"text" : "set filter response"
								}

							}
, 							{
								"box" : 								{
									"bubble" : 1,
									"fontname" : "Arial",
									"fontsize" : 13.0,
									"id" : "obj-24",
									"linecount" : 2,
									"maxclass" : "comment",
									"numinlets" : 1,
									"numoutlets" : 0,
									"patching_rect" : [ 110.0, 265.0, 120.0, 40.0 ],
									"style" : "",
									"text" : "clear biquad~ if filter blows up"
								}

							}
, 							{
								"box" : 								{
									"fontname" : "Arial",
									"fontsize" : 13.0,
									"id" : "obj-63",
									"maxclass" : "message",
									"numinlets" : 2,
									"numoutlets" : 1,
									"outlettype" : [ "" ],
									"patching_rect" : [ 60.0, 275.5, 43.0, 23.0 ],
									"style" : "",
									"text" : "clear"
								}

							}
, 							{
								"box" : 								{
									"fontname" : "Arial",
									"fontsize" : 13.0,
									"id" : "obj-6",
									"maxclass" : "newobj",
									"numinlets" : 6,
									"numoutlets" : 1,
									"outlettype" : [ "signal" ],
									"patching_rect" : [ 25.0, 320.0, 92.0, 23.0 ],
									"style" : "",
									"text" : "biquad~"
								}

							}
, 							{
								"box" : 								{
									"attr" : "edit_mode",
									"fontface" : 0,
									"fontname" : "Arial",
									"fontsize" : 13.0,
									"id" : "obj-12",
									"lock" : 1,
									"maxclass" : "attrui",
									"numinlets" : 1,
									"numoutlets" : 1,
									"orientation" : 1,
									"outlettype" : [ "" ],
									"patching_rect" : [ 280.0, 181.5, 83.0, 46.0 ],
									"style" : "",
									"text_width" : 83.0
								}

							}
 ],
						"lines" : [ 							{
								"patchline" : 								{
									"destination" : [ "obj-72", 0 ],
									"hidden" : 1,
									"source" : [ "obj-10", 0 ]
								}

							}
, 							{
								"patchline" : 								{
									"destination" : [ "obj-81", 0 ],
									"source" : [ "obj-12", 0 ]
								}

							}
, 							{
								"patchline" : 								{
									"destination" : [ "obj-81", 5 ],
									"source" : [ "obj-4", 0 ]
								}

							}
, 							{
								"patchline" : 								{
									"destination" : [ "obj-6", 0 ],
									"source" : [ "obj-5", 0 ]
								}

							}
, 							{
								"patchline" : 								{
									"destination" : [ "obj-7", 0 ],
									"source" : [ "obj-6", 0 ]
								}

							}
, 							{
								"patchline" : 								{
									"destination" : [ "obj-6", 0 ],
									"source" : [ "obj-63", 0 ]
								}

							}
, 							{
								"patchline" : 								{
									"destination" : [ "obj-81", 7 ],
									"source" : [ "obj-72", 0 ]
								}

							}
, 							{
								"patchline" : 								{
									"destination" : [ "obj-81", 6 ],
									"source" : [ "obj-74", 0 ]
								}

							}
, 							{
								"patchline" : 								{
									"destination" : [ "obj-81", 5 ],
									"source" : [ "obj-75", 0 ]
								}

							}
, 							{
								"patchline" : 								{
									"destination" : [ "obj-75", 0 ],
									"hidden" : 1,
									"source" : [ "obj-8", 0 ]
								}

							}
, 							{
								"patchline" : 								{
									"destination" : [ "obj-10", 0 ],
									"hidden" : 1,
									"source" : [ "obj-81", 3 ]
								}

							}
, 							{
								"patchline" : 								{
									"destination" : [ "obj-6", 0 ],
									"source" : [ "obj-81", 0 ]
								}

							}
, 							{
								"patchline" : 								{
									"destination" : [ "obj-8", 0 ],
									"hidden" : 1,
									"source" : [ "obj-81", 1 ]
								}

							}
, 							{
								"patchline" : 								{
									"destination" : [ "obj-9", 0 ],
									"hidden" : 1,
									"source" : [ "obj-81", 2 ]
								}

							}
, 							{
								"patchline" : 								{
									"destination" : [ "obj-74", 0 ],
									"hidden" : 1,
									"source" : [ "obj-9", 0 ]
								}

							}
 ]
					}
,
					"patching_rect" : [ 206.0, 533.0, 92.0, 22.0 ],
					"saved_object_attributes" : 					{
						"description" : "",
						"digest" : "",
						"globalpatchername" : "",
						"style" : "",
						"tags" : ""
					}
,
					"style" : "",
					"text" : "p lowPassFilter"
				}

			}
, 			{
				"box" : 				{
					"id" : "obj-35",
					"maxclass" : "slider",
					"numinlets" : 1,
					"numoutlets" : 1,
					"outlettype" : [ "" ],
					"parameter_enable" : 0,
					"patching_rect" : [ 385.0, 360.0, 34.0, 109.0 ],
					"style" : ""
				}

			}
, 			{
				"box" : 				{
					"id" : "obj-10",
					"maxclass" : "number",
					"numinlets" : 1,
					"numoutlets" : 2,
					"outlettype" : [ "", "bang" ],
					"parameter_enable" : 0,
					"patching_rect" : [ 301.0, 264.0, 50.0, 22.0 ],
					"style" : ""
				}

			}
, 			{
				"box" : 				{
					"id" : "obj-7",
					"maxclass" : "button",
					"numinlets" : 1,
					"numoutlets" : 1,
					"outlettype" : [ "bang" ],
					"patching_rect" : [ 220.0, 297.0, 24.0, 24.0 ],
					"style" : ""
				}

			}
, 			{
				"box" : 				{
					"id" : "obj-4",
					"maxclass" : "newobj",
					"numinlets" : 5,
					"numoutlets" : 1,
					"outlettype" : [ "" ],
					"patching_rect" : [ 301.0, 215.0, 120.0, 22.0 ],
					"style" : "",
					"text" : "zmap 0 4095 50 250"
				}

			}
, 			{
				"box" : 				{
					"id" : "obj-2",
					"maxclass" : "newobj",
					"numinlets" : 2,
					"numoutlets" : 1,
					"outlettype" : [ "bang" ],
					"patching_rect" : [ 220.0, 264.0, 65.0, 22.0 ],
					"style" : "",
					"text" : "metro 150"
				}

			}
, 			{
				"box" : 				{
					"id" : "obj-18",
					"maxclass" : "toggle",
					"numinlets" : 1,
					"numoutlets" : 1,
					"outlettype" : [ "int" ],
					"parameter_enable" : 0,
					"patching_rect" : [ 220.0, 178.0, 24.0, 24.0 ],
					"style" : ""
				}

			}
, 			{
				"box" : 				{
					"id" : "obj-15",
					"maxclass" : "number",
					"numinlets" : 1,
					"numoutlets" : 2,
					"outlettype" : [ "", "bang" ],
					"parameter_enable" : 0,
					"patching_rect" : [ 300.0, 178.0, 50.0, 22.0 ],
					"style" : ""
				}

			}
, 			{
				"box" : 				{
					"id" : "obj-8",
					"maxclass" : "number",
					"numinlets" : 1,
					"numoutlets" : 2,
					"outlettype" : [ "", "bang" ],
					"parameter_enable" : 0,
					"patching_rect" : [ 118.0, 49.0, 50.0, 22.0 ],
					"style" : ""
				}

			}
, 			{
				"box" : 				{
					"id" : "obj-5",
					"maxclass" : "message",
					"numinlets" : 2,
					"numoutlets" : 1,
					"outlettype" : [ "" ],
					"patching_rect" : [ 118.0, 94.0, 60.0, 22.0 ],
					"style" : "",
					"text" : "/test/1 $1"
				}

			}
, 			{
				"box" : 				{
					"id" : "obj-3",
					"maxclass" : "newobj",
					"numinlets" : 1,
					"numoutlets" : 3,
					"outlettype" : [ "", "", "" ],
					"patching_rect" : [ 220.0, 134.0, 179.0, 22.0 ],
					"style" : "",
					"text" : "OSC-route /inputs/d0 /inputs/a6"
				}

			}
, 			{
				"box" : 				{
					"id" : "obj-1",
					"maxclass" : "newobj",
					"numinlets" : 1,
					"numoutlets" : 1,
					"outlettype" : [ "" ],
					"patching_rect" : [ 220.0, 76.0, 99.0, 22.0 ],
					"style" : "",
					"text" : "udpreceive 9999"
				}

			}
 ],
		"lines" : [ 			{
				"patchline" : 				{
					"destination" : [ "obj-3", 0 ],
					"source" : [ "obj-1", 0 ]
				}

			}
, 			{
				"patchline" : 				{
					"destination" : [ "obj-22", 0 ],
					"source" : [ "obj-11", 0 ]
				}

			}
, 			{
				"patchline" : 				{
					"destination" : [ "obj-13", 0 ],
					"source" : [ "obj-12", 0 ]
				}

			}
, 			{
				"patchline" : 				{
					"destination" : [ "obj-35", 0 ],
					"source" : [ "obj-13", 0 ]
				}

			}
, 			{
				"patchline" : 				{
					"destination" : [ "obj-22", 1 ],
					"source" : [ "obj-14", 0 ]
				}

			}
, 			{
				"patchline" : 				{
					"destination" : [ "obj-4", 0 ],
					"source" : [ "obj-15", 0 ]
				}

			}
, 			{
				"patchline" : 				{
					"destination" : [ "obj-14", 0 ],
					"source" : [ "obj-17", 0 ]
				}

			}
, 			{
				"patchline" : 				{
					"destination" : [ "obj-2", 0 ],
					"source" : [ "obj-18", 0 ]
				}

			}
, 			{
				"patchline" : 				{
					"destination" : [ "obj-21", 0 ],
					"source" : [ "obj-19", 0 ]
				}

			}
, 			{
				"patchline" : 				{
					"destination" : [ "obj-7", 0 ],
					"source" : [ "obj-2", 0 ]
				}

			}
, 			{
				"patchline" : 				{
					"destination" : [ "obj-14", 0 ],
					"source" : [ "obj-21", 0 ]
				}

			}
, 			{
				"patchline" : 				{
					"destination" : [ "obj-50", 0 ],
					"source" : [ "obj-22", 0 ]
				}

			}
, 			{
				"patchline" : 				{
					"destination" : [ "obj-15", 0 ],
					"source" : [ "obj-3", 1 ]
				}

			}
, 			{
				"patchline" : 				{
					"destination" : [ "obj-18", 0 ],
					"source" : [ "obj-3", 0 ]
				}

			}
, 			{
				"patchline" : 				{
					"destination" : [ "obj-51", 0 ],
					"source" : [ "obj-35", 0 ]
				}

			}
, 			{
				"patchline" : 				{
					"destination" : [ "obj-10", 0 ],
					"order" : 0,
					"source" : [ "obj-4", 0 ]
				}

			}
, 			{
				"patchline" : 				{
					"destination" : [ "obj-2", 1 ],
					"order" : 1,
					"source" : [ "obj-4", 0 ]
				}

			}
, 			{
				"patchline" : 				{
					"destination" : [ "obj-3", 0 ],
					"source" : [ "obj-5", 0 ]
				}

			}
, 			{
				"patchline" : 				{
					"destination" : [ "obj-23", 1 ],
					"order" : 0,
					"source" : [ "obj-50", 0 ]
				}

			}
, 			{
				"patchline" : 				{
					"destination" : [ "obj-23", 0 ],
					"order" : 1,
					"source" : [ "obj-50", 0 ]
				}

			}
, 			{
				"patchline" : 				{
					"destination" : [ "obj-56", 0 ],
					"source" : [ "obj-51", 0 ]
				}

			}
, 			{
				"patchline" : 				{
					"destination" : [ "obj-50", 1 ],
					"source" : [ "obj-56", 0 ]
				}

			}
, 			{
				"patchline" : 				{
					"destination" : [ "obj-12", 0 ],
					"order" : 0,
					"source" : [ "obj-7", 0 ]
				}

			}
, 			{
				"patchline" : 				{
					"destination" : [ "obj-17", 0 ],
					"order" : 2,
					"source" : [ "obj-7", 0 ]
				}

			}
, 			{
				"patchline" : 				{
					"destination" : [ "obj-19", 0 ],
					"order" : 1,
					"source" : [ "obj-7", 0 ]
				}

			}
, 			{
				"patchline" : 				{
					"destination" : [ "obj-5", 0 ],
					"source" : [ "obj-8", 0 ]
				}

			}
 ],
		"dependency_cache" : [ 			{
				"name" : "OSC-route.mxo",
				"type" : "iLaX"
			}
 ],
		"autosave" : 0
	}

}
